<?xml version="1.0" encoding="UTF-8"?>
<!-- Generated by Pixelmator Pro 3.7 -->
<svg width="203" height="45" viewBox="0 0 203 45" xmlns="http://www.w3.org/2000/svg">
    <path id="Krisna" fill="#000000" fill-rule="evenodd" stroke="none" d="M 62.632004 5.995972 C 63.776001 5.468018 65.052002 5.203979 66.328003 5.732056 C 67.559998 6.215942 68.352005 7.447998 68.352005 8.855957 C 68.352005 9.735962 68.087997 10.352051 68 10.572021 C 67.912003 10.791992 67.692001 10.835938 67.515999 10.791992 C 67.251999 10.703979 67.251999 10.439941 67.296005 10.264038 C 67.428001 9.868042 67.559998 9.384033 67.559998 8.855957 C 67.559998 7.800049 67.031998 6.920044 66.020004 6.436035 C 65.007996 6.083984 64.040001 6.215942 62.984001 6.699951 C 62.324005 7.052002 61.619995 7.491943 60.916 8.063965 C 59.507996 9.164063 58.012001 10.572021 56.559998 11.803955 C 53.171997 14.751953 49.167999 17.699951 44.987999 19.900024 C 42.216 21.395996 39.312 22.540039 36.408001 23.156006 C 37.552002 24.696045 38.563999 26.588013 38.959999 28.787964 C 39.136002 29.755981 39.223999 30.680054 39.223999 31.560059 C 39.223999 33.232056 39.003998 34.81604 38.739998 36.223999 C 38.52 37.631958 38.299999 38.952026 38.299999 40.052002 C 38.299999 41.151978 38.52 42.296021 39.444 43.131958 C 41.599998 45.199951 45.076 43.307983 46.880001 41.459961 C 47.056 41.328003 47.276001 41.328003 47.452 41.504028 C 47.584 41.635986 47.584 41.900024 47.452 42.031982 C 45.515999 43.968018 41.468002 46.124023 38.916 43.703979 C 37.903999 42.780029 37.507999 41.592041 37.507999 40.052002 C 37.507999 38.819946 37.728001 37.5 37.947998 36.092041 C 38.211998 34.68396 38.431999 33.187988 38.431999 31.560059 C 38.431999 30.723999 38.388 29.843994 38.211998 28.920044 C 37.816002 26.764038 36.716 24.871948 35.528 23.332031 C 34.384003 23.552002 33.239998 23.640015 32.096001 23.640015 C 30.335999 23.640015 28.576 23.375977 26.860001 22.803955 C 26.288002 23.640015 25.672001 24.432007 25.056 25.267944 C 21.975998 29.404053 19.424 32.968018 17.048 35.871948 C 14.672001 38.732056 12.516001 40.887939 10.316 42.16394 C 8.864 43.043945 7.368 43.484009 5.784 43.484009 C 5.431999 43.484009 5.124001 43.484009 4.771999 43.439941 C 3.232 43.264038 2.043999 42.692017 1.252 41.855957 C 0.46 40.975952 0.064 39.787964 0.064 38.468018 C 0.064 37.852051 0.152 37.235962 0.284 36.531982 C 0.328 36.355957 0.548 36.223999 0.768 36.267944 C 0.988 36.312012 1.12 36.488037 1.076 36.708008 C 0.9 37.323975 0.856 37.939941 0.856 38.468018 C 0.856 39.656006 1.208 40.579956 1.824 41.284058 C 2.484001 41.988037 3.452 42.472046 4.860001 42.647949 C 5.167999 42.692017 5.476 42.692017 5.784 42.692017 C 7.191999 42.692017 8.556 42.296021 9.92 41.504028 C 11.284 40.667969 12.691999 39.47998 14.144001 37.939941 C 17.091999 34.81604 20.348 30.328003 24.439999 24.784058 C 24.968002 24.036011 25.540001 23.244019 26.112 22.495972 C 25.232002 21.880005 23.736 21.264038 23.736 19.592041 C 23.736 18.008057 25.188 16.995972 26.771999 16.995972 C 27.739998 16.995972 28.795998 17.26001 29.676003 17.656006 C 31.172001 15.631958 32.667999 13.696045 34.208 11.848022 C 36.276001 9.339966 38.344002 7.095947 40.456001 5.203979 C 36.716 4.456055 32.403999 3.531982 28.444 2.651978 C 26.243999 2.167969 24.528 1.947998 23.164001 1.947998 C 21.403999 1.947998 20.260002 2.300049 19.599998 2.696045 C 18.939999 3.092041 18.324001 3.708008 18.368 4.764038 C 18.411999 4.984009 18.236 5.203979 18.015999 5.203979 C 17.796 5.248047 17.619999 5.072021 17.576 4.852051 C 17.532 4.411987 17.576 3.927979 17.972 3.223999 C 18.324001 2.608032 19.028 1.947998 20.172001 1.595947 C 20.919998 1.332031 21.931999 1.156006 23.164001 1.156006 C 24.616001 1.156006 26.375999 1.375977 28.620003 1.859985 C 32.580002 2.73999 36.891998 3.708008 40.632 4.456055 C 40.807999 4.5 41.028 4.543945 41.248001 4.588013 C 42.172001 3.796021 43.183998 3.092041 44.152 2.475952 C 46.439999 1.112061 48.816002 0.276001 51.324005 0.187988 C 52.423996 0.187988 53.787994 0.407959 54.492004 1.552002 C 55.020004 2.387939 55.063995 3.751953 54.535995 4.676025 C 53.524002 6.436035 51.147995 6.787964 49.035999 6.656006 C 47.540001 6.567993 44.768002 6.083984 41.468002 5.42395 C 40.279999 6.391968 39.18 7.491943 38.035999 8.680054 C 35.484001 11.364014 32.975998 14.57605 30.424 18.008057 C 30.952 18.271973 31.524002 18.579956 32.007999 18.932007 C 33.416 19.900024 34.779999 21.131958 35.835999 22.452026 C 38.784 21.92395 41.732002 20.735962 44.636002 19.196045 C 48.728001 17.040039 52.688004 14.092041 56.076004 11.232056 C 57.132004 10.307983 58.231995 9.251953 59.332001 8.328003 C 60.431999 7.404053 61.531998 6.524048 62.632004 5.995972 Z M 64.568001 44.452026 C 66.063995 44.495972 67.515999 44.099976 69.451996 43.439941 C 72.501892 42.395481 76.146835 40.636959 79.746475 38.465656 C 79.570755 39.312546 79.551521 40.103432 79.748001 40.800049 C 80.143997 42.560059 82.124001 42.823975 83.751999 42.823975 C 89.692001 42.823975 96.292 38.203979 101.528 33.76001 C 101.582153 33.705849 101.619644 33.64753 101.641747 33.587612 C 101.753128 33.599869 101.873306 33.567039 101.968002 33.495972 C 102.012001 33.452026 107.952003 28.26001 113.188004 23.859985 C 113.239845 25.000637 113.346001 26.127691 113.453133 27.26516 L 113.453148 27.265306 L 113.453163 27.26545 L 113.453178 27.265594 C 113.618774 29.023933 113.78672 30.807163 113.760002 32.703979 C 113.716003 32.703979 113.584 32.791992 113.540001 32.791992 C 109.052002 34.728027 106.412003 36.66394 105.620003 38.55603 C 105.047997 39.920044 105.092003 41.108032 105.531998 42.031982 C 106.543999 44.05603 109.844002 44.319946 111.603996 42.868042 C 113.276001 41.416016 114.244003 38.511963 114.507996 34.156006 C 114.507996 33.848022 114.552002 33.540039 114.552002 33.232056 C 117.544006 32 120.227997 31.208008 120.227997 31.208008 C 121.90966 30.727573 124.465813 30.210644 126.802246 30.220922 C 126.254875 31.093393 125.63575 32.050358 124.936005 33.099976 C 123.70401 34.947998 122.428009 36.796021 121.283997 38.33606 C 119.216003 41.151978 117.984009 42.823975 117.984009 42.823975 L 118.643997 43.307983 C 118.643997 43.264038 120.18399 41.108032 121.944 38.819946 C 123.660004 36.619995 125.992004 33.891968 128.675995 31.251953 C 134.044006 26.015991 142.052002 20.031982 149.619995 21.572021 C 150.983994 21.835938 151.820007 22.407959 152.084 23.244019 C 152.832001 25.355957 150.104004 28.699951 150.104004 28.699951 C 150.104004 28.699951 148.300003 30.812012 146.716003 33.232056 C 144.516006 36.66394 143.591995 39.215942 143.988007 40.932007 C 144.207993 41.812012 144.779999 42.427979 145.660004 42.780029 C 146.056 42.956055 146.539993 43.043945 147.112 43.043945 C 149.311996 43.043945 152.524002 41.592041 156.660004 38.732056 C 158.955338 37.111809 161.068375 35.392113 162.358307 34.305317 C 161.802963 35.582695 161.58786 36.811256 161.720001 37.984009 C 162.248001 41.635986 165.108002 43.791992 168.804001 43.791992 C 171.091995 43.791992 173.643997 42.911987 176.591995 41.063965 C 178.440002 39.920044 180.244003 38.55603 182.091995 37.060059 C 180.947998 38.42395 180.419998 39.567993 180.507996 40.536011 C 180.684006 42.735962 183.5 43.219971 185.216003 43.219971 C 191.287994 43.219971 198.460007 37.5 202.727997 33.671997 C 202.860001 33.495972 202.860001 33.276001 202.727997 33.099976 C 202.595993 32.92395 202.332001 32.92395 202.156006 33.05603 C 197.139999 37.719971 190.408005 42.427979 185.171997 42.427979 C 183.895996 42.427979 181.388 42.031982 181.300003 40.491943 C 181.212006 39.567993 181.960007 38.291992 183.455994 36.708008 C 184.688004 35.432007 186.492004 33.936035 188.735992 32.264038 C 192.563995 29.491943 196.524002 27.203979 196.567993 27.160034 C 196.744003 27.072021 196.832001 26.807983 196.699997 26.631958 C 196.612 26.456055 196.348007 26.368042 196.171997 26.5 C 196.128006 26.5 192.167999 28.787964 188.251999 31.647949 C 188.164001 31.735962 188.031998 31.823975 187.899994 31.911987 C 190.891998 28.744019 192.167999 26.060059 191.684006 23.904053 C 191.112 21.352051 188.207993 20.560059 188.031998 20.515991 C 186.975998 20.208008 185.876007 20.07605 184.688004 20.07605 C 182.179993 20.07605 179.496002 20.692017 176.636002 21.968018 C 173.688004 23.244019 170.783997 25.135986 167.923996 27.55603 C 165.929077 29.254642 164.404083 30.90007 163.360977 32.48037 C 163.278641 32.489101 163.196625 32.520523 163.128006 32.572021 C 163.128006 32.615967 159.916 35.475952 156.175995 38.072021 C 151.335999 41.459961 147.815994 42.823975 145.968002 42.07605 C 145.307999 41.812012 144.912003 41.371948 144.779999 40.755981 C 144.427994 39.303955 145.307999 36.839966 147.376007 33.671997 C 148.960007 31.251953 150.675995 29.228027 150.675995 29.18396 C 150.682053 29.174883 150.701843 29.149775 150.733154 29.110052 C 151.157104 28.572313 153.692444 25.356436 152.832001 22.97998 C 152.436005 21.880005 151.423996 21.131958 149.796005 20.780029 C 146.276001 20.07605 142.404007 20.823975 138.311996 22.97998 C 135.056 24.696045 131.623993 27.291992 128.104004 30.723999 C 127.444 31.384033 126.783997 32.043945 126.167999 32.703979 C 127.839996 30.108032 129.160004 27.907959 130.084 26.147949 C 131.843994 22.715942 131.712006 21.572021 131.447998 21.043945 C 131.360001 20.868042 131.139999 20.780029 130.919998 20.868042 C 130.744003 20.956055 130.656006 21.176025 130.744003 21.395996 C 130.967621 21.843214 130.938675 23.490246 127.287453 29.439217 C 124.741341 29.345396 121.89431 29.90262 120.007996 30.459961 C 120.007996 30.459961 117.455994 31.16394 114.552002 32.352051 C 114.602867 30.673599 114.433243 29.053951 114.255531 27.357073 L 114.255516 27.356941 L 114.255501 27.356791 C 114.125755 26.117937 113.991699 24.837971 113.935997 23.463989 L 113.935997 23.199951 C 114.022522 23.132357 114.11602 23.060112 114.215172 22.9835 C 115.729561 21.813353 118.562157 19.62464 117.984009 17.436035 C 117.85199 16.907959 117.455994 16.511963 116.928009 16.335938 C 116.531998 16.203979 115.563995 16.115967 114.68399 16.907959 C 113.716003 17.787964 113.143997 19.767944 113.143997 22.848022 C 107.776001 27.291992 101.484001 32.83606 101.440002 32.92395 C 101.392815 32.959362 101.358276 33.00425 101.335556 33.053532 C 101.221603 33.038345 101.097343 33.070995 101 33.144043 C 95.940002 37.543945 88.856003 42.031982 83.751999 42.031982 C 82.608002 42.031982 80.848 41.900024 80.496002 40.624023 C 79.760002 37.639107 83.279732 32.640392 85.582024 29.370689 C 85.757202 29.121902 85.925331 28.883123 86.084 28.656006 C 89.251999 24.167969 92.639999 20.208008 92.683998 20.164063 C 92.816002 19.988037 92.816002 19.723999 92.639999 19.592041 C 92.463997 19.459961 92.199997 19.459961 92.068001 19.635986 C 92.024002 19.680054 88.636002 23.68396 85.468002 28.215942 C 85.325714 28.417732 85.17704 28.62743 85.023415 28.844109 C 83.312431 31.257362 80.987625 34.536369 80.038185 37.396152 C 79.999016 37.408787 79.960556 37.428619 79.924004 37.456055 C 76.183998 39.744019 72.356003 41.592041 69.188004 42.692017 C 67.559998 43.264038 66.152 43.660034 65.052002 43.660034 C 62.807999 43.660034 61.664001 42.604004 61.884003 40.447998 C 61.972 39.391968 62.412003 38.115967 63.160004 36.619995 C 64.612 33.803955 66.900002 30.812012 68.748001 28.348022 C 69.540001 27.291992 70.244003 26.368042 70.772003 25.57605 C 71.475998 24.52002 71.652 23.68396 71.300003 23.024048 C 70.746086 21.916197 68.748085 21.922359 68.262627 21.923857 C 68.246765 21.923906 68.232529 21.92395 68.220001 21.92395 C 67.208 21.880005 64.744003 21.572021 63.335999 20.780029 C 64.040001 19.328003 64.259995 18.359985 63.996002 17.567993 C 63.863998 17.215942 63.512001 16.644043 62.587997 16.644043 C 62.367996 16.644043 61.311996 16.732056 61.091995 18.008057 C 60.916 19.063965 61.223999 20.208008 62.279999 21 C 62.279999 21.043945 62.104004 21.307983 62.015999 21.484009 C 59.507996 25.57605 56.647995 29.667969 52.731995 33.187988 C 52.556 33.364014 52.556 33.583984 52.688004 33.76001 C 52.82 33.936035 53.084 33.936035 53.259995 33.803955 C 56.912003 30.504028 60.124001 26.411987 62.720001 21.92395 C 62.807999 21.748047 62.895996 21.615967 62.984001 21.484009 C 64.919998 22.540039 68.043999 22.715942 68.264 22.715942 C 68.792 22.715942 70.244003 22.76001 70.596001 23.420044 C 70.816002 23.859985 70.507996 24.563965 70.112 25.135986 C 69.584 25.884033 68.923996 26.807983 68.087997 27.864014 C 66.240005 30.328003 63.908005 33.407959 62.456001 36.267944 C 61.664001 37.852051 61.18 39.215942 61.091995 40.359985 C 60.872002 42.647949 62.059998 44.364014 64.568001 44.452026 Z M 113.760002 33.540039 C 113.627998 36.751953 113.012001 40.667969 111.120003 42.296021 C 109.975998 43.307983 107.115997 43.439941 106.236 41.680054 C 105.884003 40.975952 105.884003 40.052002 106.323997 38.907959 C 107.028 37.060059 109.800003 35.167969 113.760002 33.540039 Z M 162.511993 37.895996 C 162.863998 41.063965 165.503998 43 168.804001 43 C 173.731995 43 179.276001 38.380005 183.720001 34.68396 C 190.408005 29.140015 191.332001 25.884033 190.936005 24.079956 C 190.451996 21.968018 187.856003 21.264038 187.811996 21.264038 C 186.843994 21 185.787994 20.868042 184.688004 20.868042 C 179.804001 20.868042 173.863998 23.508057 168.451996 28.171997 C 166.119995 30.108032 164.447998 32.043945 163.479996 33.803955 C 162.688004 35.255981 162.380005 36.619995 162.511993 37.895996 Z M 27.344002 22.144043 C 28.884003 22.628052 30.468002 22.848022 32.096001 22.848022 C 33.02 22.848022 33.987999 22.76001 34.956001 22.628052 C 33.636002 21.131958 32.271999 20.07605 31.568001 19.592041 C 31.040001 19.23999 30.512001 18.887939 29.940002 18.624023 C 29.059998 19.767944 28.223999 20.956055 27.344002 22.144043 Z M 115.212006 17.524048 C 115.652008 17.128052 116.136002 16.952026 116.619995 17.083984 C 116.972 17.171997 117.192001 17.47998 117.235992 17.656006 C 117.544006 18.579956 116.311996 20.119995 115.828003 20.647949 C 115.255997 21.219971 114.639999 21.748047 113.935997 22.232056 C 114.024002 19.812012 114.507996 18.140015 115.212006 17.524048 Z M 26.771999 17.744019 C 25.760002 17.744019 24.528 18.359985 24.528 19.592041 C 24.528 20.604004 25.716 21.439941 26.596001 21.835938 C 27.431999 20.647949 28.312 19.459961 29.192001 18.31604 C 28.444 18.008057 27.652 17.744019 26.771999 17.744019 Z M 61.928001 18.18396 C 62.015999 17.744019 62.192001 17.47998 62.543999 17.436035 C 62.895996 17.436035 63.115997 17.656006 63.203995 17.875977 C 63.335999 18.18396 63.380005 18.843994 62.675995 20.296021 C 62.104004 19.900024 61.796005 18.800049 61.928001 18.18396 Z M 96.335999 11.891968 C 97.480003 11.891968 98.447998 12.859985 98.447998 14.004028 C 98.447998 15.192017 97.480003 16.160034 96.335999 16.160034 C 95.148003 16.160034 94.18 15.192017 94.18 14.004028 C 94.18 12.859985 95.148003 11.891968 96.335999 11.891968 Z M 51.324005 0.97998 C 49.035999 1.024048 46.792 1.81604 44.548 3.180054 C 43.799999 3.619995 43.007999 4.192017 42.260002 4.764038 C 45.251999 5.335938 47.759998 5.776001 49.124001 5.864014 C 50.531998 5.952026 52.380005 5.907959 53.524002 4.764038 C 54.139999 4.060059 54.360001 2.828003 53.832001 1.947998 C 53.304001 1.156006 52.380005 1.024048 51.324005 0.97998 Z"/>
</svg>
